# xmcd
#
# Track frame offsets:
#	150
#	10606
#	22655
#	33120
#	44393
#	58753
#	69362
#	79975
#	88215
#	98052
#	113565
#	124322
#
# Disc length: 1883 seconds
#
# Revision: 1
# Processed by: cddbd v1.5.1PL2 Copyright (c) Steve Scherf et al.
# Submitted via: audiograbber 1.83.01
#
DISCID=8b07590c
DTITLE=J.P.McDermott and Western Bop - Last Fool Here
DYEAR=2005
DGENRE=Western Bop
TTITLE0=My Damn Baby
TTITLE1=Do I Love You?
TTITLE2=Cry Cry Cry
TTITLE3=Coulda Shoulda Woulda
TTITLE4=Not Enough Of You
TTITLE5=Blue Days, Black Nights
TTITLE6=Lucky Stars
TTITLE7=Sixteen Chicks
TTITLE8=Go Cat Go!
TTITLE9=Heartaches for a Dime
TTITLE10=That Ain't Nothin' But Right
TTITLE11=Last Fool Here
EXTD=Can be categorized as Honk Tonk
EXTT0=
EXTT1=
EXTT2=
EXTT3=
EXTT4=
EXTT5=
EXTT6=
EXTT7=
EXTT8=
EXTT9=
EXTT10=
EXTT11=
PLAYORDER=
